# xmcd
#
# Track frame offsets:
#	150
#	3787
#	25762
#	45117
#	64529
#	81998
#	101019
#	115713
#	132626
#	157796
#	176386
#	194207
#	211701
#	229100
#
# Disc length: 3344 seconds
#
# Revision: 0
# Processed by: cddbd v1.5.2PL0 Copyright (c) Steve Scherf et al.
# Submitted via: audiograbber 1.81.01
#
DISCID=a60d0e0e
DTITLE=Shantel - Disko Partizani
DYEAR=2007
DGENRE=Ethnic
TTITLE0=Ceremoney
TTITLE1=Disko Partizani
TTITLE2=Koupes - I'll Smash Glasses
TTITLE3=Disko Boy
TTITLE4=Susuleker
TTITLE5=Fige Ki Ase Me
TTITLE6=Sota
TTITLE7=Manolis
TTITLE8=Andante Levante
TTITLE9=Immigrant Child
TTITLE10=The Veil
TTITLE11=Dubstar Bugarskji
TTITLE12=Marko i Shantel
TTITLE13=Donna Diaspora
EXTD=is kein country sondern world-music!
EXTT0=
EXTT1=
EXTT2=
EXTT3=
EXTT4=
EXTT5=
EXTT6=
EXTT7=
EXTT8=
EXTT9=
EXTT10=
EXTT11=
EXTT12=
EXTT13=
PLAYORDER=
